<svg id="visual" viewBox="0 0 900 600" width="900" height="600" xmlns="http://www.w3.org/2000/svg" xmlns:xlink="http://www.w3.org/1999/xlink" version="1.1"><path d="M0 169L15 188.5C30 208 60 247 90 272C120 297 150 308 180 309.7C210 311.3 240 303.7 270 298.7C300 293.7 330 291.3 360 274.8C390 258.3 420 227.7 450 228.2C480 228.7 510 260.3 540 272.3C570 284.3 600 276.7 630 257.8C660 239 690 209 720 204.2C750 199.3 780 219.7 810 240.5C840 261.3 870 282.7 885 293.3L900 304L900 0L885 0C870 0 840 0 810 0C780 0 750 0 720 0C690 0 660 0 630 0C600 0 570 0 540 0C510 0 480 0 450 0C420 0 390 0 360 0C330 0 300 0 270 0C240 0 210 0 180 0C150 0 120 0 90 0C60 0 30 0 15 0L0 0Z" fill="#2a2c07" stroke-linecap="round" stroke-linejoin="miter"></path></svg>